<svg xmlns="http://www.w3.org/2000/svg" viewBox="0 0 600 260" preserveAspectRatio="xMidYMid slice"><defs><linearGradient id="g" x1="0" x2="1"><stop offset="0" stop-color="#f3b5bf"/><stop offset="1" stop-color="#fff7f2"/></linearGradient><filter id="s"><feDropShadow dx="0" dy="8" stdDeviation="8" flood-color="#6f3b3b" flood-opacity=".18"/></filter></defs><rect width="600" height="260" fill="url(#g)"/><path d="M0 215c135-85 268-35 600-95v140H0z" fill="#fff" opacity=".34"/><g filter="url(#s)" transform="translate(70 35)"><path d="M0 116c50-80 118-105 207-91 20 4 26 28 7 38-47 24-100 52-154 91-25 18-76-3-60-38z" fill="#d29377"/><path d="M132 31c44 7 85 20 121 43 16 10 14 34-4 43-46 22-96 51-148 88-23 16-67-7-49-39 27-50 49-88 80-135z" fill="#f2c0ae"/><path d="M170 28c52 7 94 22 132 48 18 12 16 38-5 47-38 17-82 41-128 73-23 16-66-8-48-40 22-40 35-83 49-128z" fill="#f8d2c5"/><path d="M228 42c42 8 78 22 111 45 17 11 15 36-5 44-33 13-72 34-112 62-23 16-63-7-48-39 17-37 32-73 54-112z" fill="#ffffff"/><path d="M294 63c41 6 78 17 115 37 16 9 16 33-2 41-32 15-68 35-104 60-20 15-59-4-48-34 13-35 25-70 39-104z" fill="#fff"/></g></svg>