<svg xmlns="http://www.w3.org/2000/svg" viewBox="0 0 1100 560" preserveAspectRatio="xMidYMid slice"><defs><linearGradient id="wall" x1="0" x2="1"><stop offset="0" stop-color="#fff8f5"/><stop offset=".5" stop-color="#f5e1d9"/><stop offset="1" stop-color="#d8aa8d"/></linearGradient><radialGradient id="glow" cx=".48" cy=".38" r=".44"><stop stop-color="#fff4ee"/><stop offset="1" stop-color="#d9a584"/></radialGradient><filter id="blur"><feGaussianBlur stdDeviation="4"/></filter></defs><rect width="1100" height="560" fill="url(#wall)"/><rect y="360" width="1100" height="200" fill="#fffdfb" opacity=".58"/><rect x="0" y="410" width="1100" height="65" fill="#fff" opacity=".33"/><g opacity=".22"><rect x="0" width="230" height="560" fill="#9a6c4c"/><rect x="250" width="140" height="560" fill="#fff"/><rect x="415" width="80" height="560" fill="#8e5f41"/><rect x="513" width="220" height="560" fill="#fff"/></g><g transform="translate(384 40)"><ellipse cx="225" cy="184" rx="230" ry="174" fill="url(#glow)" opacity=".86"/><ellipse cx="225" cy="184" rx="225" ry="168" fill="#f9e7dc" opacity=".8" stroke="#c09174" stroke-width="3"/><path d="M88 223C38 156 71 72 156 38" fill="none" stroke="#b27245" stroke-width="10" stroke-linecap="round"/><path d="M114 48c-17-28-38-31-53-15 25 4 40 11 53 15zm-28 35C66 59 39 59 25 76c27-2 43 4 61 7zm-16 42c-29-11-53 0-57 21 26-8 43-10 57-21zm4 50c-32 1-50 24-41 46 20-20 31-32 41-46zm31 47c-31 12-42 41-27 59 11-27 21-44 27-59z" fill="#b27245" opacity=".92"/><text x="173" y="168" text-anchor="middle" font-family="Georgia,serif" font-size="110" fill="#c47b55">T-T</text><text x="225" y="280" text-anchor="middle" font-family="Georgia,serif" font-size="42" letter-spacing="3" fill="#332323">T-T Nails &amp; Spa</text><text x="225" y="319" text-anchor="middle" font-family="Trebuchet MS,Arial" font-size="17" letter-spacing="5" fill="#a35b45">ELITE NAIL CARE SOLUTIONS</text></g><g transform="translate(905 80)"><rect x="0" y="0" width="175" height="360" rx="7" fill="#fff7ef" opacity=".8"/><g fill="#bc4565"><rect x="25" y="63" width="14" height="42" rx="4"/><rect x="58" y="50" width="14" height="55" rx="4"/><rect x="91" y="67" width="14" height="38" rx="4"/><rect x="125" y="45" width="14" height="60" rx="4"/><rect x="24" y="176" width="14" height="40" rx="4"/><rect x="58" y="159" width="14" height="57" rx="4"/><rect x="91" y="181" width="14" height="35" rx="4"/><rect x="125" y="154" width="14" height="62" rx="4"/><rect x="24" y="282" width="14" height="42" rx="4"/><rect x="58" y="272" width="14" height="52" rx="4"/><rect x="91" y="291" width="14" height="33" rx="4"/><rect x="125" y="267" width="14" height="57" rx="4"/></g><g stroke="#bf936e" stroke-width="5"><line x1="15" y1="112" x2="160" y2="112"/><line x1="15" y1="223" x2="160" y2="223"/><line x1="15" y1="333" x2="160" y2="333"/></g></g><g transform="translate(248 296)"><ellipse cx="62" cy="118" rx="58" ry="17" fill="#a98774" opacity=".18" filter="url(#blur)"/><rect x="40" y="72" width="43" height="71" rx="12" fill="#a28265"/><path d="M48 76c8 12 34 12 42 0v24c-12 8-31 8-42 0z" fill="#6f5c47" opacity=".3"/><g fill="none" stroke="#4d6b46" stroke-width="5" stroke-linecap="round"><path d="M60 78C54 47 32 32 8 27"/><path d="M64 77C71 45 93 31 122 23"/><path d="M62 77C58 41 64 20 81 3"/></g><g fill="#ee9daa"><circle cx="7" cy="25" r="19"/><circle cx="26" cy="24" r="21"/><circle cx="44" cy="34" r="19"/><circle cx="94" cy="22" r="21"/><circle cx="116" cy="27" r="19"/><circle cx="79" cy="9" r="18"/><circle cx="59" cy="22" r="22"/></g><g fill="#f6b5bd" opacity=".72"><circle cx="18" cy="18" r="9"/><circle cx="54" cy="17" r="8"/><circle cx="99" cy="16" r="8"/></g></g><rect y="485" width="1100" height="75" fill="#fffdfb" opacity=".72"/></svg>
