<svg xmlns="http://www.w3.org/2000/svg" viewBox="0 0 460 180" role="img" aria-labelledby="t"><title id="t">T-T Nails & Spa Logo</title><rect width="460" height="180" fill="none"/><g transform="translate(14 22)"><circle cx="68" cy="68" r="54" fill="#fff8f5" stroke="#2a2323" stroke-width="3"/><path d="M27 97C5 70 15 33 48 18" fill="none" stroke="#202020" stroke-width="5" stroke-linecap="round"/><path d="M31 20c-7-12-18-13-23-7 12 2 17 5 23 7zm-8 12C15 22 5 22 0 28c10-1 16 1 23 4zm-5 16C8 42 0 46 0 54c9-4 15-4 18-6zm2 18C9 63 2 70 5 78c7-6 12-9 15-12zm10 16c-10 2-15 10-11 17 5-8 9-12 11-17z" fill="#202020"/><text x="42" y="81" font-family="Georgia,serif" font-size="55" font-weight="700" fill="#1e1919">TT</text></g><text x="150" y="76" font-family="Georgia,serif" font-size="42" letter-spacing="6" fill="#211b1b">T-T Nails &amp; Spa</text><text x="154" y="113" font-family="Trebuchet MS,Arial,sans-serif" font-size="16" letter-spacing="5" fill="#cf5b78">ELITE NAIL CARE SOLUTIONS</text></svg>
