<svg width="720" height="220" viewBox="0 0 720 220" fill="none" xmlns="http://www.w3.org/2000/svg">
<rect width="720" height="220" fill="white"/>
<path d="M97 166C48 139 31 83 57 43C72 87 103 115 151 132C131 149 113 160 97 166Z" fill="#111111"/>
<path d="M86 142C93 98 116 60 157 31C151 73 129 111 86 142Z" fill="#111111"/>
<path d="M139 136C169 130 199 109 218 81C202 122 179 148 139 136Z" fill="#111111"/>
<path d="M164 50C188 31 214 22 246 20C226 48 199 61 164 50Z" fill="#111111"/>
<path d="M211 62C245 55 277 61 304 78C267 86 237 81 211 62Z" fill="#111111"/>
<text x="340" y="108" text-anchor="middle" font-family="Georgia, serif" font-size="92" font-weight="700" fill="#111111">T-T</text>
<text x="360" y="164" text-anchor="middle" font-family="Georgia, serif" font-size="34" letter-spacing="6" fill="#111111">NAILS &amp; SPA</text>
</svg>