<svg width="900" height="260" viewBox="0 0 900 260" fill="none" xmlns="http://www.w3.org/2000/svg">
<rect width="900" height="260" fill="#FFF8F4"/>
<path d="M101 178C54 151 36 93 63 49C76 94 108 126 159 143C137 160 119 172 101 178Z" fill="#111111"/>
<path d="M88 154C96 106 122 64 170 29C162 76 137 121 88 154Z" fill="#111111"/>
<path d="M145 146C179 139 210 117 232 84C213 128 185 158 145 146Z" fill="#111111"/>
<path d="M177 50C204 29 234 20 269 21C247 51 217 64 177 50Z" fill="#111111"/>
<path d="M225 64C263 57 300 64 332 84C291 93 257 86 225 64Z" fill="#111111"/>
<text x="420" y="118" text-anchor="middle" font-family="Georgia, serif" font-size="92" font-weight="700" fill="#111111">T-T</text>
<text x="560" y="99" text-anchor="middle" font-family="Georgia, serif" font-size="42" letter-spacing="7" fill="#111111">NAILS &amp; SPA</text>
<text x="560" y="143" text-anchor="middle" font-family="Georgia, serif" font-size="18" letter-spacing="6" fill="#C9798A">LUXURY NAIL CARE</text>
</svg>